<?xml version="1.0" encoding="UTF-8" standalone="no"?>
<!-- Created with Inkscape (http://www.inkscape.org/) -->

<svg
   width="370.41666mm"
   height="370.41666mm"
   viewBox="0 0 370.41665 370.41665"
   version="1.1"
   id="svg1"
   xml:space="preserve"
   inkscape:version="1.3.2 (091e20ef0f, 2023-11-25)"
   sodipodi:docname="viossa.svg"
   xmlns:inkscape="http://www.inkscape.org/namespaces/inkscape"
   xmlns:sodipodi="http://sodipodi.sourceforge.net/DTD/sodipodi-0.dtd"
   xmlns:xlink="http://www.w3.org/1999/xlink"
   xmlns="http://www.w3.org/2000/svg"
   xmlns:svg="http://www.w3.org/2000/svg"><sodipodi:namedview
     id="namedview1"
     pagecolor="#ffffff"
     bordercolor="#000000"
     borderopacity="0.25"
     inkscape:showpageshadow="2"
     inkscape:pageopacity="0.0"
     inkscape:pagecheckerboard="0"
     inkscape:deskcolor="#d1d1d1"
     inkscape:document-units="mm"
     inkscape:zoom="0.25000001"
     inkscape:cx="3295.9999"
     inkscape:cy="2565.9999"
     inkscape:window-width="1920"
     inkscape:window-height="1011"
     inkscape:window-x="0"
     inkscape:window-y="0"
     inkscape:window-maximized="1"
     inkscape:current-layer="layer1"
     showgrid="false" /><defs
     id="defs1"><linearGradient
       id="linearGradient16"
       inkscape:collect="always"><stop
         style="stop-color:#724a09;stop-opacity:1;"
         offset="0"
         id="stop15" /><stop
         style="stop-color:#edbb69;stop-opacity:0.99607843;"
         offset="1"
         id="stop16" /></linearGradient><linearGradient
       inkscape:collect="always"
       xlink:href="#linearGradient16"
       id="linearGradient20"
       gradientUnits="userSpaceOnUse"
       gradientTransform="translate(846.6667,1.4229614e-5)"
       x1="211.66667"
       y1="846.66669"
       x2="211.66667"
       y2="423.33334" /></defs><g
     inkscape:label="Layer 1"
     inkscape:groupmode="layer"
     id="layer1"
     transform="translate(-873.12499,-449.79165)"><g
       id="g21"><path
         id="rect2-9-2-3-7-2-8-1"
         style="fill:url(#linearGradient20);fill-opacity:1;stroke-width:3.38968;stroke-linecap:round;paint-order:markers fill stroke"
         d="m 965.72917,449.79167 c -51.30267,0 -92.60417,41.3015 -92.60417,92.60416 v 185.20834 c 0,51.30266 41.3015,92.60416 92.60417,92.60416 h 185.20833 c 51.3027,0 92.6042,-41.3015 92.6042,-92.60416 V 542.39583 c 0,-51.30266 -41.3015,-92.60416 -92.6042,-92.60416 z" /><path
         style="fill:none;fill-opacity:1;stroke:#ffffff;stroke-width:23.151;stroke-linecap:round;stroke-linejoin:round;stroke-dasharray:none;stroke-opacity:1;paint-order:markers fill stroke"
         d="m 954.15365,565.34843 h 81.72315"
         id="path4-7-2"
         sodipodi:nodetypes="cc" /><path
         style="fill:none;fill-opacity:1;stroke:#ffffff;stroke-width:23.151;stroke-linecap:round;stroke-linejoin:round;stroke-dasharray:none;stroke-opacity:1;paint-order:markers fill stroke"
         d="m 954.15365,657.95259 h 81.72315"
         id="path6-2-9"
         sodipodi:nodetypes="cc" /><path
         style="fill:none;fill-opacity:1;stroke:#ffffff;stroke-width:23.151;stroke-linecap:round;stroke-linejoin:round;stroke-dasharray:none;stroke-opacity:1;paint-order:markers fill stroke"
         d="m 954.15365,611.65051 h 69.45315"
         id="path7-0-3"
         sodipodi:nodetypes="cc" /><path
         style="fill:none;fill-opacity:1;stroke:#ffffff;stroke-width:23.151;stroke-linecap:round;stroke-linejoin:round;stroke-dasharray:none;stroke-opacity:1;paint-order:markers fill stroke"
         d="M 954.15365,704.25467 H 1162.513"
         id="path8-2-1"
         sodipodi:nodetypes="cc" /><path
         style="fill:#ffffff;fill-opacity:1;stroke-width:0.364758"
         d="m 1113.93,669.49344 c -2.7364,-0.14762 -5.974,-0.50956 -8.1536,-0.91154 -3.7649,-0.69434 -8.3577,-2.01216 -10.7819,-3.0937 -0.225,-0.10037 -0.4475,-0.18249 -0.4946,-0.18249 -0.078,0 -0.491,-0.17357 -1.6534,-0.69569 -0.2388,-0.10726 -0.6296,-0.28139 -0.8684,-0.38695 -0.7539,-0.3332 -3.4938,-1.72245 -4.1974,-2.12825 -1.3333,-0.76892 -3.5746,-2.16072 -3.9568,-2.4571 -0.053,-0.0415 -0.3791,-0.26968 -0.7237,-0.50725 -5.2457,-3.61638 -10.3775,-8.71387 -14.0928,-13.99866 -2.057,-2.92605 -3.0563,-4.60534 -4.6239,-7.77034 -2.2821,-4.60782 -3.9718,-9.43846 -4.8281,-13.8032 -0.062,-0.31853 -0.1773,-0.88208 -0.2551,-1.25233 -0.4241,-2.01682 -0.7673,-5.21922 -0.9158,-8.54505 -0.2627,-5.88608 0.4911,-12.20678 2.1526,-18.05034 0.3621,-1.27365 1.5243,-4.67709 1.8623,-5.45371 0.069,-0.15927 0.1822,-0.4416 0.2509,-0.62743 0.405,-1.09542 2.332,-5.08473 3.0306,-6.27417 1.5146,-2.57854 2.1798,-3.61662 3.4577,-5.39581 3.1194,-4.34302 6.2837,-7.69009 10.8745,-11.50274 3.2111,-2.66687 8.3237,-5.78501 12.638,-7.70799 5.1904,-2.31349 10.6516,-3.82872 16.3577,-4.53857 4.9392,-0.61442 10.3681,-0.58017 15.1975,0.0959 5.2828,0.73953 10.5227,2.22581 15.2922,4.33754 5.1835,2.29499 10.0024,5.31759 14.1378,8.86759 2.3184,1.99017 3.7339,3.37662 6.0749,5.95015 1.8065,1.9859 4.4366,5.61184 6.2315,8.5908 0.6921,1.14883 2.7734,5.16267 3.1533,6.08114 0.088,0.21235 0.3295,0.77703 0.5373,1.25484 0.2077,0.4778 0.5189,1.25966 0.6916,1.73747 0.1727,0.47779 0.3513,0.9556 0.397,1.06178 0.1579,0.36725 0.9496,2.82398 1.1544,3.58233 0.4842,1.79259 0.597,2.23031 0.669,2.59532 0.042,0.21235 0.1506,0.73359 0.2417,1.15831 0.3775,1.75996 0.4386,2.10086 0.6658,3.71625 0.5896,4.19242 0.7654,7.89793 0.5428,11.43996 -0.1103,1.75624 -0.2546,3.37714 -0.3822,4.29376 -0.3127,2.24743 -0.2989,2.16575 -0.7832,4.63324 -1.2206,6.21811 -4.0481,13.16261 -7.7423,19.0156 -5.4818,8.68505 -13.8232,16.24454 -22.8376,20.69676 -2.6893,1.32824 -3.1495,1.53137 -5.9343,2.61968 -3.2268,1.26106 -7.9883,2.45759 -12.0615,3.03098 -2.8316,0.3986 -7.8893,0.65525 -10.3245,0.52389 z m 8.0714,-32.34328 c 1.5016,-0.7029 3.4894,-3.22145 4.1327,-5.2362 0.278,-0.87039 0.3818,-1.59944 0.4532,-3.18313 0.072,-1.59134 -0.056,-1.35904 1.3277,-2.42157 0.5184,-0.39817 1.2746,-0.9886 1.6805,-1.31205 1.3815,-1.10085 2.4733,-2.64552 1.8699,-2.64552 -0.094,0 -0.4842,0.0869 -0.8672,0.19306 -1.1757,0.3259 -1.1727,0.33216 -0.4019,-0.8446 1.5343,-2.34209 2.6814,-3.53086 4.7696,-4.94279 1.3297,-0.899 3.2388,-2.31428 6.4642,-4.79199 2.2695,-1.74344 3.3148,-2.41945 7.6711,-4.96116 2.622,-1.52984 5.3796,-3.26727 6.4167,-4.04288 1.9788,-1.47987 8.5822,-7.11735 10.1483,-8.66382 0.5131,-0.50665 0.707,-0.76597 0.707,-0.94563 0,-0.41264 -0.5631,-0.33853 -1.649,0.21699 -1.2626,0.64589 -4.2703,2.66167 -6.0703,4.0683 -2.2577,1.76428 -4.2917,3.22661 -6.9477,4.99513 -2.7104,1.80476 -4.9285,3.21347 -5.0598,3.21347 -0.026,0 -0.5963,0.26063 -1.268,0.57915 -0.6718,0.31854 -1.2398,0.57916 -1.2625,0.57916 -0.094,0 -4.3246,2.13858 -5.2511,2.65445 -3.8172,2.12543 -6.2502,3.884 -8.5385,6.17151 -1.6995,1.69886 -2.4637,2.73568 -4.096,5.5564 -1.0781,1.86311 -1.2897,2.14671 -1.7116,2.29395 -0.1925,0.0671 -1.0037,0.16643 -1.8027,0.22063 -1.3324,0.0904 -2.6755,0.28519 -4.2992,0.6236 -1.3782,0.28726 -2.5463,0.44771 -2.8476,0.39117 -0.4758,-0.0893 -1.0546,-0.42622 -2.7278,-1.58781 -0.8342,-0.57916 -1.6904,-1.15158 -1.9027,-1.27203 -1.8207,-1.03317 -4.4967,-1.92849 -7.4299,-2.48586 -0.5838,-0.11093 -1.4305,-0.27193 -1.8816,-0.35774 -0.4511,-0.0858 -1.1458,-0.19401 -1.5438,-0.24042 -0.398,-0.0464 -1.3316,-0.15645 -2.0746,-0.24456 -1.042,-0.12355 -2.4099,-0.1662 -5.9825,-0.1865 -5.6983,-0.0324 -6.5442,-0.12767 -11.579,-1.30452 -0.7565,-0.17682 -1.7385,-0.39997 -3.4737,-0.78934 -2.5569,-0.57377 -6.0699,-1.59613 -8.4428,-2.45703 -1.1921,-0.43247 -1.9983,-0.61519 -2.7143,-0.61519 -0.6176,0 -0.9526,0.11685 -0.9526,0.3323 0,0.45821 2.9719,2.48715 5.2221,3.56515 2.4616,1.17924 4.5585,1.85339 9.2034,2.95877 1.4299,0.34028 4.8015,1.16747 9.8421,2.41463 5.2909,1.3091 7.6271,1.78121 11.9168,2.40828 3.6907,0.53951 5.3535,0.98374 7.247,1.93612 1.6553,0.83259 3.5258,2.12926 4.3646,3.02576 0.4577,0.48912 1.3701,1.88343 2.5727,3.93153 1.0661,1.81556 1.5886,2.43591 2.4313,2.88656 0.984,0.52615 1.622,0.67516 2.7392,0.63977 0.8443,-0.0267 1.0559,-0.0696 1.5983,-0.3235 z"
         id="path9-3-9" /></g></g></svg>
