<?xml version="1.0" encoding="UTF-8" standalone="no"?>
<!-- Created with Inkscape (http://www.inkscape.org/) -->

<svg
   width="423.33334mm"
   height="423.33334mm"
   viewBox="0 0 423.33334 423.33334"
   version="1.1"
   id="svg1"
   xml:space="preserve"
   inkscape:version="1.3.2 (091e20ef0f, 2023-11-25)"
   sodipodi:docname="viossa.svg"
   xmlns:inkscape="http://www.inkscape.org/namespaces/inkscape"
   xmlns:sodipodi="http://sodipodi.sourceforge.net/DTD/sodipodi-0.dtd"
   xmlns:xlink="http://www.w3.org/1999/xlink"
   xmlns="http://www.w3.org/2000/svg"
   xmlns:svg="http://www.w3.org/2000/svg"><sodipodi:namedview
     id="namedview1"
     pagecolor="#ffffff"
     bordercolor="#000000"
     borderopacity="0.25"
     inkscape:showpageshadow="2"
     inkscape:pageopacity="0.0"
     inkscape:pagecheckerboard="0"
     inkscape:deskcolor="#d1d1d1"
     inkscape:document-units="mm"
     inkscape:zoom="0.125"
     inkscape:cx="2316"
     inkscape:cy="3444"
     inkscape:window-width="1920"
     inkscape:window-height="1011"
     inkscape:window-x="0"
     inkscape:window-y="0"
     inkscape:window-maximized="1"
     inkscape:current-layer="layer1"
     showgrid="false" /><defs
     id="defs1"><linearGradient
       id="linearGradient39"
       inkscape:collect="always"><stop
         style="stop-color:#7f5815;stop-opacity:1;"
         offset="0"
         id="stop39" /><stop
         style="stop-color:#dea953;stop-opacity:0.99607843;"
         offset="1"
         id="stop40" /></linearGradient><linearGradient
       inkscape:collect="always"
       xlink:href="#linearGradient39"
       id="linearGradient40"
       x1="211.66667"
       y1="846.66669"
       x2="211.66667"
       y2="423.33334"
       gradientUnits="userSpaceOnUse" /><linearGradient
       inkscape:collect="always"
       xlink:href="#linearGradient39"
       id="linearGradient41"
       gradientUnits="userSpaceOnUse"
       x1="211.66667"
       y1="846.66669"
       x2="211.66667"
       y2="423.33334"
       gradientTransform="translate(423.33336,1.4229614e-5)" /></defs><g
     inkscape:label="Layer 1"
     inkscape:groupmode="layer"
     id="layer1"
     transform="translate(-423.33334,-423.33334)"><g
       id="g2"
       inkscape:export-filename="favicon.png"
       inkscape:export-xdpi="96"
       inkscape:export-ydpi="96"><rect
         style="opacity:1;fill:#00baff;fill-opacity:1;stroke-width:3.38968;stroke-linecap:round;paint-order:markers fill stroke"
         id="rect2"
         width="423.33334"
         height="423.33334"
         x="0"
         y="0" /><path
         style="fill:#ffffff;fill-opacity:1;stroke-width:1.00048"
         d="m 205.41017,370.32161 c -7.50541,-0.40487 -16.38567,-1.39764 -22.36404,-2.50019 -10.32668,-1.90449 -22.92392,-5.51908 -29.57323,-8.48559 -0.61707,-0.2753 -1.22751,-0.50054 -1.35655,-0.50054 -0.21509,0 -1.34663,-0.47611 -4.5351,-1.90819 -0.65504,-0.29421 -1.72692,-0.77182 -2.38197,-1.06135 -2.06764,-0.91393 -9.58283,-4.72445 -11.51284,-5.83751 -3.65701,-2.10903 -9.80458,-5.92655 -10.85291,-6.73943 -0.1465,-0.11361 -1.03974,-0.73971 -1.98498,-1.39134 -14.38826,-9.91923 -28.463941,-23.90091 -38.654476,-38.39635 -5.642223,-8.02572 -8.383141,-12.63176 -12.682728,-21.31292 -6.25962,-12.63861 -10.894108,-25.88834 -13.242737,-37.86023 -0.171402,-0.87369 -0.486347,-2.41943 -0.699882,-3.43496 -1.163161,-5.53182 -2.104465,-14.31558 -2.511688,-23.43786 -0.720707,-16.14468 1.346727,-33.48146 5.904072,-49.50951 0.99331,-3.49346 4.181112,-12.82862 5.108162,-14.95877 0.190118,-0.43684 0.499831,-1.21126 0.688248,-1.72091 1.110805,-3.00461 6.39604,-13.94673 8.312349,-17.2092 4.154284,-7.07255 5.978874,-9.91984 9.484052,-14.79994 8.556113,-11.9123 17.235222,-21.092824 29.827128,-31.550365 8.80777,-7.314833 22.83062,-15.867466 34.66419,-21.141922 14.23666,-6.345568 29.21585,-10.501641 44.8671,-12.448656 13.54731,-1.685284 28.43792,-1.591303 41.68446,0.263092 14.48976,2.028429 28.8621,6.10507 41.94425,11.897255 14.21751,6.294864 27.43529,14.585386 38.77804,24.322546 6.35886,5.458756 10.24144,9.261598 16.66262,16.32042 4.95499,5.44704 12.16903,15.39247 17.09197,23.56336 1.89849,3.15104 7.60724,14.16045 8.64898,16.67968 0.24086,0.58246 0.90407,2.13128 1.4738,3.44183 0.56973,1.31055 1.42342,3.45508 1.89707,4.76563 0.47366,1.31054 0.96363,2.62109 1.08884,2.91232 0.4331,1.00736 2.60462,7.74578 3.16647,9.82585 1.3281,4.9168 1.63756,6.11741 1.83484,7.11859 0.11479,0.58247 0.41314,2.01215 0.66302,3.17708 1.03546,4.82732 1.20297,5.76233 1.8261,10.19314 1.61719,11.49921 2.09949,21.66291 1.48897,31.37819 -0.30271,4.81712 -0.69844,9.263 -1.04829,11.77716 -0.85778,6.16439 -0.81991,5.94034 -2.14839,12.70833 -3.34779,17.05539 -11.10315,36.10314 -21.23597,52.15709 -15.03569,23.82185 -37.91509,44.55648 -62.6403,56.76827 -7.37631,3.64317 -8.63843,4.20032 -16.27678,7.18542 -8.85073,3.4589 -21.91082,6.74082 -33.08291,8.31352 -7.7667,1.09333 -21.63956,1.79726 -28.31896,1.43696 z m 22.13894,-88.71301 c 4.1185,-1.92797 9.57076,-8.83598 11.33553,-14.36216 0.76238,-2.38733 1.04705,-4.38701 1.24285,-8.73086 0.19676,-4.36483 -0.1526,-3.72765 3.64171,-6.64204 1.42186,-1.09212 3.49612,-2.71156 4.60946,-3.59876 3.78913,-3.01948 6.78369,-7.25627 5.12873,-7.25627 -0.25766,0 -1.32805,0.23829 -2.37861,0.52952 -3.22473,0.89392 -3.21657,0.91109 -1.1022,-2.31663 4.20815,-6.42398 7.35459,-9.68465 13.08235,-13.55736 3.64695,-2.46582 8.88345,-6.34772 17.73025,-13.14376 6.22503,-4.78202 9.09204,-6.63621 21.04073,-13.60774 7.19185,-4.19613 14.75548,-8.96163 17.60011,-11.08904 5.42748,-4.05906 23.53985,-19.5219 27.83548,-23.76362 1.40733,-1.38967 1.93913,-2.10099 1.93913,-2.59374 0,-1.13181 -1.54446,-0.92857 -4.52301,0.59517 -3.463,1.77158 -11.7129,7.30061 -16.65005,11.15875 -6.19254,4.83917 -11.77136,8.85016 -19.05643,13.70094 -7.43435,4.9502 -13.51834,8.8141 -13.8784,8.8141 -0.0705,0 -1.6356,0.71485 -3.47802,1.58854 -1.84242,0.8737 -3.40061,1.58854 -3.46266,1.58854 -0.25796,0 -11.86198,5.8658 -14.40319,7.28077 -10.46988,5.82975 -17.14334,10.65326 -23.41979,16.92758 -4.66133,4.65974 -6.75771,7.5036 -11.23469,15.24042 -2.95708,5.11024 -3.53753,5.88814 -4.69477,6.29195 -0.52793,0.18421 -2.75293,0.45655 -4.94445,0.60519 -3.65453,0.24786 -7.33857,0.78224 -11.79216,1.71046 -3.78029,0.78789 -6.98424,1.228 -7.81067,1.07291 -1.305,-0.24491 -2.89263,-1.16907 -7.48185,-4.35516 -2.28813,-1.58855 -4.63662,-3.15859 -5.21888,-3.48899 -4.99403,-2.83382 -12.33391,-5.28957 -20.37907,-6.81835 -1.60121,-0.30427 -3.92364,-0.74583 -5.16093,-0.98123 -1.2373,-0.2354 -3.14288,-0.53215 -4.23462,-0.65942 -1.09173,-0.12729 -3.65235,-0.42914 -5.69025,-0.67079 -2.85808,-0.33891 -6.61001,-0.45588 -16.40913,-0.51155 -15.62957,-0.0888 -17.94972,-0.35018 -31.75958,-3.57811 -2.07492,-0.485 -4.7685,-1.09708 -9.52788,-2.16508 -7.013108,-1.57374 -16.648967,-4.37796 -23.157471,-6.73927 -3.269547,-1.18619 -5.480844,-1.68738 -7.444947,-1.68738 -1.694041,0 -2.612809,0.3205 -2.612809,0.91143 0,1.2568 8.151671,6.82192 14.323704,9.77875 6.751537,3.23446 12.503233,5.08356 25.243443,8.11545 3.92214,0.93338 13.16988,3.2022 26.99565,6.62303 14.51206,3.59064 20.91979,4.88559 32.68591,6.60554 10.12304,1.47977 14.68389,2.69826 19.87758,5.31052 4.54034,2.28364 9.67066,5.84024 11.97147,8.29923 1.2553,1.34159 3.75783,5.16596 7.05644,10.78362 2.92407,4.9798 4.35728,6.68136 6.66882,7.9174 2.69887,1.44316 4.44874,1.85187 7.51319,1.7548 2.31579,-0.0734 2.89616,-0.19082 4.38398,-0.8873 z"
         id="path1" /></g><g
       id="g1"><rect
         style="fill:#00baff;fill-opacity:1;stroke-width:3.38968;stroke-linecap:round;paint-order:markers fill stroke"
         id="rect2-5"
         width="423.33334"
         height="423.33334"
         x="423.33334"
         y="2.0617674e-07"
         ry="105.83334" /><path
         style="fill:#ffffff;fill-opacity:1;stroke-width:1.00048"
         d="m 628.7435,370.32161 c -7.50541,-0.40487 -16.38567,-1.39764 -22.36404,-2.50019 -10.32668,-1.90449 -22.92392,-5.51908 -29.57323,-8.48559 -0.61707,-0.2753 -1.22751,-0.50054 -1.35655,-0.50054 -0.21509,0 -1.34663,-0.47611 -4.5351,-1.90819 -0.65504,-0.29421 -1.72692,-0.77182 -2.38197,-1.06135 -2.06764,-0.91393 -9.58283,-4.72445 -11.51284,-5.83751 -3.65701,-2.10903 -9.80458,-5.92655 -10.85291,-6.73943 -0.1465,-0.11361 -1.03974,-0.73971 -1.98498,-1.39134 -14.38826,-9.91923 -28.46394,-23.90091 -38.65448,-38.39635 -5.64222,-8.02572 -8.38314,-12.63176 -12.68272,-21.31292 -6.25962,-12.63861 -10.89411,-25.88834 -13.24274,-37.86023 -0.1714,-0.87369 -0.48635,-2.41943 -0.69988,-3.43496 -1.16316,-5.53182 -2.10447,-14.31558 -2.51169,-23.43786 -0.72071,-16.14468 1.34673,-33.48146 5.90407,-49.50951 0.99331,-3.49346 4.18111,-12.82862 5.10816,-14.95877 0.19012,-0.43684 0.49983,-1.21126 0.68825,-1.72091 1.11081,-3.00461 6.39604,-13.94673 8.31235,-17.2092 4.15428,-7.07255 5.97887,-9.91984 9.48405,-14.79994 8.55612,-11.9123 17.23522,-21.092824 29.82713,-31.550365 8.80777,-7.314833 22.83062,-15.867466 34.66419,-21.141922 14.23666,-6.345568 29.21585,-10.501641 44.8671,-12.448656 13.54731,-1.685284 28.43792,-1.591303 41.68446,0.263092 14.48976,2.028429 28.8621,6.10507 41.94425,11.897255 14.21751,6.294864 27.43529,14.585386 38.77804,24.322546 6.35886,5.458756 10.24144,9.261598 16.66262,16.32042 4.95499,5.44704 12.16903,15.39247 17.09197,23.56336 1.89849,3.15104 7.60724,14.16045 8.64898,16.67968 0.24086,0.58246 0.90407,2.13128 1.4738,3.44183 0.56973,1.31055 1.42342,3.45508 1.89707,4.76563 0.47366,1.31054 0.96363,2.62109 1.08884,2.91232 0.4331,1.00736 2.60462,7.74578 3.16647,9.82585 1.3281,4.9168 1.63756,6.11741 1.83484,7.11859 0.11479,0.58247 0.41314,2.01215 0.66302,3.17708 1.03546,4.82732 1.20297,5.76233 1.8261,10.19314 1.61719,11.49921 2.09949,21.66291 1.48897,31.37819 -0.30271,4.81712 -0.69844,9.263 -1.04829,11.77716 -0.85778,6.16439 -0.81991,5.94034 -2.14839,12.70833 -3.34779,17.05539 -11.10315,36.10314 -21.23597,52.15709 -15.03569,23.82185 -37.91509,44.55648 -62.6403,56.76827 -7.37631,3.64317 -8.63843,4.20032 -16.27678,7.18542 -8.85073,3.4589 -21.91082,6.74082 -33.08291,8.31352 -7.7667,1.09333 -21.63956,1.79726 -28.31896,1.43696 z m 22.13894,-88.71301 c 4.1185,-1.92797 9.57076,-8.83598 11.33553,-14.36216 0.76238,-2.38733 1.04705,-4.38701 1.24285,-8.73086 0.19676,-4.36483 -0.1526,-3.72765 3.64171,-6.64204 1.42186,-1.09212 3.49612,-2.71156 4.60946,-3.59876 3.78913,-3.01948 6.78369,-7.25627 5.12873,-7.25627 -0.25766,0 -1.32805,0.23829 -2.37861,0.52952 -3.22473,0.89392 -3.21657,0.91109 -1.1022,-2.31663 4.20815,-6.42398 7.35459,-9.68465 13.08235,-13.55736 3.64695,-2.46582 8.88345,-6.34772 17.73025,-13.14376 6.22503,-4.78202 9.09204,-6.63621 21.04073,-13.60774 7.19185,-4.19613 14.75548,-8.96163 17.60011,-11.08904 5.42748,-4.05906 23.53985,-19.5219 27.83548,-23.76362 1.40733,-1.38967 1.93913,-2.10099 1.93913,-2.59374 0,-1.13181 -1.54446,-0.92857 -4.52301,0.59517 -3.463,1.77158 -11.7129,7.30061 -16.65005,11.15875 -6.19254,4.83917 -11.77136,8.85016 -19.05643,13.70094 -7.43435,4.9502 -13.51834,8.8141 -13.8784,8.8141 -0.0705,0 -1.6356,0.71485 -3.47802,1.58854 -1.84242,0.8737 -3.40061,1.58854 -3.46266,1.58854 -0.25796,0 -11.86198,5.8658 -14.40319,7.28077 -10.46988,5.82975 -17.14334,10.65326 -23.41979,16.92758 -4.66133,4.65974 -6.75771,7.5036 -11.23469,15.24042 -2.95708,5.11024 -3.53753,5.88814 -4.69477,6.29195 -0.52793,0.18421 -2.75293,0.45655 -4.94445,0.60519 -3.65453,0.24786 -7.33857,0.78224 -11.79216,1.71046 -3.78029,0.78789 -6.98424,1.228 -7.81067,1.07291 -1.305,-0.24491 -2.89263,-1.16907 -7.48185,-4.35516 -2.28813,-1.58855 -4.63662,-3.15859 -5.21888,-3.48899 -4.99403,-2.83382 -12.33391,-5.28957 -20.37907,-6.81835 -1.60121,-0.30427 -3.92364,-0.74583 -5.16093,-0.98123 -1.2373,-0.2354 -3.14288,-0.53215 -4.23462,-0.65942 -1.09173,-0.12729 -3.65235,-0.42914 -5.69025,-0.67079 -2.85808,-0.33891 -6.61001,-0.45588 -16.40913,-0.51155 -15.62957,-0.0888 -17.94972,-0.35018 -31.75958,-3.57811 -2.07492,-0.485 -4.7685,-1.09708 -9.52788,-2.16508 -7.01311,-1.57374 -16.64897,-4.37796 -23.15747,-6.73927 -3.26955,-1.18619 -5.48085,-1.68738 -7.44495,-1.68738 -1.69404,0 -2.61281,0.3205 -2.61281,0.91143 0,1.2568 8.15167,6.82192 14.32371,9.77875 6.75153,3.23446 12.50323,5.08356 25.24344,8.11545 3.92214,0.93338 13.16988,3.2022 26.99565,6.62303 14.51206,3.59064 20.91979,4.88559 32.68591,6.60554 10.12304,1.47977 14.68389,2.69826 19.87758,5.31052 4.54034,2.28364 9.67066,5.84024 11.97147,8.29923 1.2553,1.34159 3.75783,5.16596 7.05644,10.78362 2.92407,4.9798 4.35728,6.68136 6.66882,7.9174 2.69887,1.44316 4.44874,1.85187 7.51319,1.7548 2.31579,-0.0734 2.89616,-0.19082 4.38398,-0.8873 z"
         id="path1-3" /></g><g
       id="g41"><rect
         style="fill:url(#linearGradient40);fill-opacity:1;stroke-width:3.38968;stroke-linecap:round;paint-order:markers fill stroke"
         id="rect2-9-2-3"
         width="423.33334"
         height="423.33334"
         x="0"
         y="423.33334"
         ry="0" /><path
         style="opacity:1;fill:none;fill-opacity:1;stroke:#ffffff;stroke-width:26.4583;stroke-linecap:round;stroke-linejoin:round;stroke-dasharray:none;stroke-opacity:1;paint-order:markers fill stroke"
         d="m 92.60415,529.16665 h 93.39793"
         id="path31"
         sodipodi:nodetypes="cc" /><path
         style="opacity:1;fill:none;fill-opacity:1;stroke:#ffffff;stroke-width:26.4583;stroke-linecap:round;stroke-linejoin:round;stroke-dasharray:none;stroke-opacity:1;paint-order:markers fill stroke"
         d="M 92.60415,740.83332 H 330.72917"
         id="path32"
         sodipodi:nodetypes="cc" /><path
         style="opacity:1;fill:none;fill-opacity:1;stroke:#ffffff;stroke-width:26.4583;stroke-linecap:round;stroke-linejoin:round;stroke-dasharray:none;stroke-opacity:1;paint-order:markers fill stroke"
         d="m 92.60415,634.99998 h 93.39793"
         id="path37"
         sodipodi:nodetypes="cc" /><path
         style="opacity:1;fill:none;fill-opacity:1;stroke:#ffffff;stroke-width:26.4583;stroke-linecap:round;stroke-linejoin:round;stroke-dasharray:none;stroke-opacity:1;paint-order:markers fill stroke"
         d="m 92.60415,582.08332 h 79.37502"
         id="path38"
         sodipodi:nodetypes="cc" /><path
         style="fill:none;fill-opacity:1;stroke:#ffffff;stroke-width:26.4583;stroke-linecap:round;stroke-linejoin:round;stroke-dasharray:none;stroke-opacity:1;paint-order:markers fill stroke"
         d="M 92.60415,687.91665 H 330.72917"
         id="path37-9"
         sodipodi:nodetypes="cc" /><path
         style="fill:#ffffff;fill-opacity:1;stroke-width:0.416866"
         d="m 275.20564,648.18952 c -3.12725,-0.1687 -6.82737,-0.58235 -9.31837,-1.04175 -4.30276,-0.79354 -9.55163,-2.29962 -12.32217,-3.53566 -0.25712,-0.11471 -0.51145,-0.20856 -0.56521,-0.20856 -0.0896,0 -0.56112,-0.19837 -1.88962,-0.79508 -0.27295,-0.12258 -0.71959,-0.32158 -0.9925,-0.44222 -0.86154,-0.38081 -3.99284,-1.96852 -4.79704,-2.43229 -1.52374,-0.87877 -4.08521,-2.4694 -4.52204,-2.80811 -0.061,-0.0474 -0.43321,-0.30821 -0.82708,-0.57972 -5.99509,-4.133 -11.85995,-9.95871 -16.106,-15.99847 -2.35091,-3.34406 -3.49299,-5.26324 -5.2845,-8.88039 -2.60816,-5.26608 -4.53916,-10.78681 -5.51779,-15.77508 -0.0714,-0.36404 -0.20262,-1.0081 -0.29162,-1.43124 -0.48463,-2.30493 -0.87683,-5.96482 -1.04654,-9.76577 -0.3003,-6.72695 0.56117,-13.9506 2.46003,-20.62896 0.41388,-1.4556 1.74214,-5.34525 2.12842,-6.23281 0.0793,-0.18203 0.20825,-0.50469 0.28676,-0.71706 0.46283,-1.25191 2.66504,-5.81113 3.46349,-7.17049 1.73097,-2.9469 2.49117,-4.13327 3.95166,-6.16664 3.56505,-4.96345 7.18134,-8.78867 12.428,-13.14598 3.66988,-3.04785 9.51275,-6.61144 14.44338,-8.80914 5.93195,-2.64398 12.17328,-4.37567 18.69461,-5.18693 5.64475,-0.7022 11.84917,-0.66305 17.36855,0.10962 6.03741,0.84518 12.02587,2.54378 17.47678,4.95719 5.92395,2.62285 11.43133,6.07725 16.15749,10.13439 2.64955,2.27448 4.26725,3.85899 6.94275,6.80017 2.06459,2.2696 5.07042,6.41353 7.12167,9.81806 0.79104,1.31294 3.16966,5.90019 3.60375,6.94987 0.10033,0.24269 0.37667,0.88803 0.61409,1.4341 0.23736,0.54606 0.59308,1.43961 0.79041,1.98568 0.19737,0.54605 0.40154,1.09212 0.45371,1.21347 0.18045,0.41971 1.08524,3.2274 1.31932,4.09409 0.55339,2.04867 0.68233,2.54893 0.76455,2.96608 0.0479,0.24269 0.17213,0.83839 0.27624,1.32378 0.43146,2.01138 0.50125,2.40098 0.76088,4.24715 0.67383,4.79133 0.8748,9.0262 0.62041,13.07424 -0.12612,2.00713 -0.29103,3.85958 -0.43678,4.90715 -0.35741,2.56849 -0.34163,2.47514 -0.89517,5.29513 -1.39491,7.10641 -4.62633,15.04298 -8.84833,21.73212 -6.26488,9.92577 -15.79795,18.56519 -26.10012,23.65344 -3.07345,1.51798 -3.59934,1.75013 -6.78199,2.99392 -3.68779,1.44121 -9.1295,2.80867 -13.78455,3.46397 -3.23612,0.45555 -9.01645,0.74886 -11.79953,0.59873 z m 9.22454,-36.96375 c 1.71603,-0.80331 3.98783,-3.68165 4.72312,-5.98422 0.31767,-0.99473 0.43629,-1.82793 0.51787,-3.63787 0.082,-1.81867 -0.0636,-1.55318 1.51738,-2.76751 0.59246,-0.45505 1.45671,-1.12982 1.92062,-1.49948 1.57879,-1.25812 2.82655,-3.02345 2.13696,-3.02345 -0.10737,0 -0.55337,0.0993 -0.99108,0.22064 -1.34367,0.37246 -1.34024,0.37961 -0.45925,-0.96526 1.75338,-2.67667 3.06441,-4.03527 5.45096,-5.6489 1.51959,-1.02743 3.70145,-2.64489 7.38762,-5.47656 2.59374,-1.99251 3.78833,-2.76509 8.76696,-5.6699 2.99662,-1.74839 6.14812,-3.73402 7.33337,-4.62043 2.26146,-1.69128 9.80828,-8.13412 11.59812,-9.90151 0.58638,-0.57903 0.80795,-0.8754 0.80795,-1.08072 0,-0.47159 -0.64349,-0.3869 -1.88457,0.24798 -1.44293,0.73817 -4.88038,3.04192 -6.9375,4.64949 -2.58026,2.01632 -4.90476,3.68756 -7.9402,5.70872 -3.09764,2.06258 -5.63263,3.67254 -5.78268,3.67254 -0.0295,0 -0.68149,0.29786 -1.44916,0.66189 -0.76767,0.36404 -1.41691,0.66189 -1.44275,0.66189 -0.1075,0 -4.9425,2.44409 -6.00133,3.03366 -4.36245,2.42906 -7.14307,4.43886 -9.75825,7.05315 -1.94225,1.94156 -2.81571,3.1265 -4.68112,6.35017 -1.23213,2.12927 -1.47396,2.45339 -1.95618,2.62166 -0.21995,0.0767 -1.14703,0.19021 -2.06016,0.25215 -1.52274,0.10328 -3.05774,0.32593 -4.91341,0.71269 -1.57513,0.32829 -2.91008,0.51167 -3.25446,0.44705 -0.54375,-0.10205 -1.20525,-0.48711 -3.11742,-1.81464 -0.95337,-0.6619 -1.93192,-1.31609 -2.17454,-1.45375 -2.08083,-1.18077 -5.13911,-2.20399 -8.49128,-2.84098 -0.66717,-0.12678 -1.63484,-0.31078 -2.15038,-0.40885 -0.51554,-0.0981 -1.30955,-0.22173 -1.76441,-0.27476 -0.45488,-0.053 -1.52183,-0.1788 -2.37097,-0.2795 -1.19083,-0.1412 -2.75416,-0.18994 -6.83711,-0.21314 -6.51233,-0.037 -7.47904,-0.14591 -13.23316,-1.49088 -0.86455,-0.20209 -1.98688,-0.45711 -3.96991,-0.90211 -2.92218,-0.65573 -6.93709,-1.82415 -9.64897,-2.80803 -1.36233,-0.49425 -2.28371,-0.70308 -3.10208,-0.70308 -0.70583,0 -1.08867,0.13355 -1.08867,0.37977 0,0.52367 3.39655,2.84246 5.96821,4.07446 2.81317,1.34771 5.2097,2.11816 10.51811,3.38145 1.63423,0.3889 5.48743,1.33425 11.24817,2.75958 6.04672,1.49612 8.71658,2.03567 13.61913,2.75232 4.21796,0.61658 6.11829,1.12427 8.28234,2.21271 1.89178,0.95153 4.02943,2.43344 4.98811,3.45801 0.52304,0.559 1.56574,2.15249 2.94017,4.49318 1.21837,2.07492 1.81554,2.7839 2.77866,3.29892 1.12454,0.60132 1.85367,0.77162 3.1305,0.73117 0.96492,-0.0305 1.20675,-0.0795 1.82667,-0.36972 z"
         id="path1-1-9-7" /></g><g
       id="g42"><rect
         style="fill:url(#linearGradient41);fill-opacity:1;stroke-width:3.38968;stroke-linecap:round;paint-order:markers fill stroke"
         id="rect2-9-2-3-7"
         width="423.33334"
         height="423.33334"
         x="423.33334"
         y="423.33334"
         ry="105.83334" /><path
         style="fill:none;fill-opacity:1;stroke:#ffffff;stroke-width:26.4583;stroke-linecap:round;stroke-linejoin:round;stroke-dasharray:none;stroke-opacity:1;paint-order:markers fill stroke"
         d="m 515.93751,529.16666 h 93.39793"
         id="path31-8"
         sodipodi:nodetypes="cc" /><path
         style="fill:none;fill-opacity:1;stroke:#ffffff;stroke-width:26.4583;stroke-linecap:round;stroke-linejoin:round;stroke-dasharray:none;stroke-opacity:1;paint-order:markers fill stroke"
         d="M 515.93751,740.83333 H 754.06253"
         id="path32-6"
         sodipodi:nodetypes="cc" /><path
         style="fill:none;fill-opacity:1;stroke:#ffffff;stroke-width:26.4583;stroke-linecap:round;stroke-linejoin:round;stroke-dasharray:none;stroke-opacity:1;paint-order:markers fill stroke"
         d="m 515.93751,634.99999 h 93.39793"
         id="path37-8"
         sodipodi:nodetypes="cc" /><path
         style="fill:none;fill-opacity:1;stroke:#ffffff;stroke-width:26.4583;stroke-linecap:round;stroke-linejoin:round;stroke-dasharray:none;stroke-opacity:1;paint-order:markers fill stroke"
         d="m 515.93751,582.08333 h 79.37502"
         id="path38-8"
         sodipodi:nodetypes="cc" /><path
         style="fill:none;fill-opacity:1;stroke:#ffffff;stroke-width:26.4583;stroke-linecap:round;stroke-linejoin:round;stroke-dasharray:none;stroke-opacity:1;paint-order:markers fill stroke"
         d="M 515.93751,687.91666 H 754.06253"
         id="path37-9-4"
         sodipodi:nodetypes="cc" /><path
         style="fill:#ffffff;fill-opacity:1;stroke-width:0.416866"
         d="m 698.539,648.18953 c -3.12725,-0.1687 -6.82737,-0.58235 -9.31837,-1.04175 -4.30276,-0.79354 -9.55163,-2.29962 -12.32217,-3.53566 -0.25712,-0.11471 -0.51145,-0.20856 -0.56521,-0.20856 -0.0896,0 -0.56112,-0.19837 -1.88962,-0.79508 -0.27295,-0.12258 -0.71959,-0.32158 -0.9925,-0.44222 -0.86154,-0.38081 -3.99284,-1.96852 -4.79704,-2.43229 -1.52374,-0.87877 -4.08521,-2.4694 -4.52204,-2.80811 -0.061,-0.0474 -0.43321,-0.30821 -0.82708,-0.57972 -5.99509,-4.133 -11.85995,-9.95871 -16.106,-15.99847 -2.35091,-3.34406 -3.49299,-5.26324 -5.2845,-8.88039 -2.60816,-5.26608 -4.53916,-10.78681 -5.51779,-15.77508 -0.0714,-0.36404 -0.20262,-1.0081 -0.29162,-1.43124 -0.48463,-2.30493 -0.87683,-5.96482 -1.04654,-9.76577 -0.3003,-6.72695 0.56117,-13.9506 2.46003,-20.62896 0.41388,-1.4556 1.74214,-5.34525 2.12842,-6.23281 0.0793,-0.18203 0.20825,-0.50469 0.28676,-0.71706 0.46283,-1.25191 2.66504,-5.81113 3.46349,-7.17049 1.73097,-2.9469 2.49117,-4.13327 3.95166,-6.16664 3.56505,-4.96345 7.18134,-8.78867 12.428,-13.14598 3.66988,-3.04785 9.51275,-6.61144 14.44338,-8.80914 5.93195,-2.64398 12.17328,-4.37567 18.69461,-5.18693 5.64475,-0.7022 11.84917,-0.66305 17.36855,0.10962 6.03741,0.84518 12.02587,2.54378 17.47678,4.95719 5.92395,2.62285 11.43133,6.07725 16.15749,10.13439 2.64955,2.27448 4.26725,3.85899 6.94275,6.80017 2.06459,2.2696 5.07042,6.41353 7.12167,9.81806 0.79104,1.31294 3.16966,5.90019 3.60375,6.94987 0.10033,0.24269 0.37667,0.88803 0.61409,1.4341 0.23736,0.54606 0.59308,1.43961 0.79041,1.98568 0.19737,0.54605 0.40154,1.09212 0.45371,1.21347 0.18045,0.41971 1.08524,3.2274 1.31932,4.09409 0.55339,2.04867 0.68233,2.54893 0.76455,2.96608 0.0479,0.24269 0.17213,0.83839 0.27624,1.32378 0.43146,2.01138 0.50125,2.40098 0.76088,4.24715 0.67383,4.79133 0.8748,9.0262 0.62041,13.07424 -0.12612,2.00713 -0.29103,3.85958 -0.43678,4.90715 -0.35741,2.56849 -0.34163,2.47514 -0.89517,5.29513 -1.39491,7.10641 -4.62633,15.04298 -8.84833,21.73212 -6.26488,9.92577 -15.79795,18.56519 -26.10012,23.65344 -3.07345,1.51798 -3.59934,1.75013 -6.78199,2.99392 -3.68779,1.44121 -9.1295,2.80867 -13.78455,3.46397 -3.23612,0.45555 -9.01645,0.74886 -11.79953,0.59873 z m 9.22454,-36.96375 c 1.71603,-0.80331 3.98783,-3.68165 4.72312,-5.98422 0.31767,-0.99473 0.43629,-1.82793 0.51787,-3.63787 0.082,-1.81867 -0.0636,-1.55318 1.51738,-2.76751 0.59246,-0.45505 1.45671,-1.12982 1.92062,-1.49948 1.57879,-1.25812 2.82655,-3.02345 2.13696,-3.02345 -0.10737,0 -0.55337,0.0993 -0.99108,0.22064 -1.34367,0.37246 -1.34024,0.37961 -0.45925,-0.96526 1.75338,-2.67667 3.06441,-4.03527 5.45096,-5.6489 1.51959,-1.02743 3.70145,-2.64489 7.38762,-5.47656 2.59374,-1.99251 3.78833,-2.76509 8.76696,-5.6699 2.99662,-1.74839 6.14812,-3.73402 7.33337,-4.62043 2.26146,-1.69128 9.80828,-8.13412 11.59812,-9.90151 0.58638,-0.57903 0.80795,-0.8754 0.80795,-1.08072 0,-0.47159 -0.64349,-0.3869 -1.88457,0.24798 -1.44293,0.73817 -4.88038,3.04192 -6.9375,4.64949 -2.58026,2.01632 -4.90476,3.68756 -7.9402,5.70872 -3.09764,2.06258 -5.63263,3.67254 -5.78268,3.67254 -0.0295,0 -0.68149,0.29786 -1.44916,0.66189 -0.76767,0.36404 -1.41691,0.66189 -1.44275,0.66189 -0.1075,0 -4.9425,2.44409 -6.00133,3.03366 -4.36245,2.42906 -7.14307,4.43886 -9.75825,7.05315 -1.94225,1.94156 -2.81571,3.1265 -4.68112,6.35017 -1.23213,2.12927 -1.47396,2.45339 -1.95618,2.62166 -0.21995,0.0767 -1.14703,0.19021 -2.06016,0.25215 -1.52274,0.10328 -3.05774,0.32593 -4.91341,0.71269 -1.57513,0.32829 -2.91008,0.51167 -3.25446,0.44705 -0.54375,-0.10205 -1.20525,-0.48711 -3.11742,-1.81464 -0.95337,-0.6619 -1.93192,-1.31609 -2.17454,-1.45375 -2.08083,-1.18077 -5.13911,-2.20399 -8.49128,-2.84098 -0.66717,-0.12678 -1.63484,-0.31078 -2.15038,-0.40885 -0.51554,-0.0981 -1.30955,-0.22173 -1.76441,-0.27476 -0.45488,-0.053 -1.52183,-0.1788 -2.37097,-0.2795 -1.19083,-0.1412 -2.75416,-0.18994 -6.83711,-0.21314 -6.51233,-0.037 -7.47904,-0.14591 -13.23316,-1.49088 -0.86455,-0.20209 -1.98688,-0.45711 -3.96991,-0.90211 -2.92218,-0.65573 -6.93709,-1.82415 -9.64897,-2.80803 -1.36233,-0.49425 -2.28371,-0.70308 -3.10208,-0.70308 -0.70583,0 -1.08867,0.13355 -1.08867,0.37977 0,0.52367 3.39655,2.84246 5.96821,4.07446 2.81317,1.34771 5.2097,2.11816 10.51811,3.38145 1.63423,0.3889 5.48743,1.33425 11.24817,2.75958 6.04672,1.49612 8.71658,2.03567 13.61913,2.75232 4.21796,0.61658 6.11829,1.12427 8.28234,2.21271 1.89178,0.95153 4.02943,2.43344 4.98811,3.45801 0.52304,0.559 1.56574,2.15249 2.94017,4.49318 1.21837,2.07492 1.81554,2.7839 2.77866,3.29892 1.12454,0.60132 1.85367,0.77162 3.1305,0.73117 0.96492,-0.0305 1.20675,-0.0795 1.82667,-0.36972 z"
         id="path1-1-9-7-3" /></g></g></svg>
