<?xml version="1.0" encoding="UTF-8" standalone="no"?>
<!-- Created with Inkscape (http://www.inkscape.org/) -->

<svg
   width="423.33334mm"
   height="423.33334mm"
   viewBox="0 0 423.33334 423.33334"
   version="1.1"
   id="svg1"
   xml:space="preserve"
   inkscape:version="1.3.2 (091e20ef0f, 2023-11-25)"
   sodipodi:docname="viossa.svg"
   xmlns:inkscape="http://www.inkscape.org/namespaces/inkscape"
   xmlns:sodipodi="http://sodipodi.sourceforge.net/DTD/sodipodi-0.dtd"
   xmlns:xlink="http://www.w3.org/1999/xlink"
   xmlns="http://www.w3.org/2000/svg"
   xmlns:svg="http://www.w3.org/2000/svg"><sodipodi:namedview
     id="namedview1"
     pagecolor="#ffffff"
     bordercolor="#000000"
     borderopacity="0.25"
     inkscape:showpageshadow="2"
     inkscape:pageopacity="0.0"
     inkscape:pagecheckerboard="0"
     inkscape:deskcolor="#d1d1d1"
     inkscape:document-units="mm"
     inkscape:zoom="0.25"
     inkscape:cx="4008"
     inkscape:cy="1118"
     inkscape:window-width="1920"
     inkscape:window-height="1011"
     inkscape:window-x="0"
     inkscape:window-y="0"
     inkscape:window-maximized="1"
     inkscape:current-layer="layer1"
     showgrid="false" /><defs
     id="defs1"><linearGradient
       id="linearGradient1"
       inkscape:collect="always"><stop
         style="stop-color:#00a4e5;stop-opacity:1;"
         offset="0"
         id="stop1" /><stop
         style="stop-color:#81d4ff;stop-opacity:1;"
         offset="1"
         id="stop2" /></linearGradient><linearGradient
       inkscape:collect="always"
       xlink:href="#linearGradient1"
       id="linearGradient2"
       x1="1059.3917"
       y1="423.33334"
       x2="1035.05"
       y2="2.0617674e-07"
       gradientUnits="userSpaceOnUse" /></defs><g
     inkscape:label="Layer 1"
     inkscape:groupmode="layer"
     id="layer1"
     transform="translate(-846.66667)"><g
       id="g1"><rect
         style="fill:#00baff;fill-opacity:1;stroke-width:3.38968;stroke-linecap:round;paint-order:markers fill stroke"
         id="rect2-5"
         width="423.33334"
         height="423.33334"
         x="423.33334"
         y="2.0617674e-07"
         ry="105.83334" /><path
         style="fill:#ffffff;fill-opacity:1;stroke-width:1.00048"
         d="m 628.7435,370.32161 c -7.50541,-0.40487 -16.38567,-1.39764 -22.36404,-2.50019 -10.32668,-1.90449 -22.92392,-5.51908 -29.57323,-8.48559 -0.61707,-0.2753 -1.22751,-0.50054 -1.35655,-0.50054 -0.21509,0 -1.34663,-0.47611 -4.5351,-1.90819 -0.65504,-0.29421 -1.72692,-0.77182 -2.38197,-1.06135 -2.06764,-0.91393 -9.58283,-4.72445 -11.51284,-5.83751 -3.65701,-2.10903 -9.80458,-5.92655 -10.85291,-6.73943 -0.1465,-0.11361 -1.03974,-0.73971 -1.98498,-1.39134 -14.38826,-9.91923 -28.46394,-23.90091 -38.65448,-38.39635 -5.64222,-8.02572 -8.38314,-12.63176 -12.68272,-21.31292 -6.25962,-12.63861 -10.89411,-25.88834 -13.24274,-37.86023 -0.1714,-0.87369 -0.48635,-2.41943 -0.69988,-3.43496 -1.16316,-5.53182 -2.10447,-14.31558 -2.51169,-23.43786 -0.72071,-16.14468 1.34673,-33.48146 5.90407,-49.50951 0.99331,-3.49346 4.18111,-12.82862 5.10816,-14.95877 0.19012,-0.43684 0.49983,-1.21126 0.68825,-1.72091 1.11081,-3.00461 6.39604,-13.94673 8.31235,-17.2092 4.15428,-7.07255 5.97887,-9.91984 9.48405,-14.79994 8.55612,-11.9123 17.23522,-21.092824 29.82713,-31.550365 8.80777,-7.314833 22.83062,-15.867466 34.66419,-21.141922 14.23666,-6.345568 29.21585,-10.501641 44.8671,-12.448656 13.54731,-1.685284 28.43792,-1.591303 41.68446,0.263092 14.48976,2.028429 28.8621,6.10507 41.94425,11.897255 14.21751,6.294864 27.43529,14.585386 38.77804,24.322546 6.35886,5.458756 10.24144,9.261598 16.66262,16.32042 4.95499,5.44704 12.16903,15.39247 17.09197,23.56336 1.89849,3.15104 7.60724,14.16045 8.64898,16.67968 0.24086,0.58246 0.90407,2.13128 1.4738,3.44183 0.56973,1.31055 1.42342,3.45508 1.89707,4.76563 0.47366,1.31054 0.96363,2.62109 1.08884,2.91232 0.4331,1.00736 2.60462,7.74578 3.16647,9.82585 1.3281,4.9168 1.63756,6.11741 1.83484,7.11859 0.11479,0.58247 0.41314,2.01215 0.66302,3.17708 1.03546,4.82732 1.20297,5.76233 1.8261,10.19314 1.61719,11.49921 2.09949,21.66291 1.48897,31.37819 -0.30271,4.81712 -0.69844,9.263 -1.04829,11.77716 -0.85778,6.16439 -0.81991,5.94034 -2.14839,12.70833 -3.34779,17.05539 -11.10315,36.10314 -21.23597,52.15709 -15.03569,23.82185 -37.91509,44.55648 -62.6403,56.76827 -7.37631,3.64317 -8.63843,4.20032 -16.27678,7.18542 -8.85073,3.4589 -21.91082,6.74082 -33.08291,8.31352 -7.7667,1.09333 -21.63956,1.79726 -28.31896,1.43696 z m 22.13894,-88.71301 c 4.1185,-1.92797 9.57076,-8.83598 11.33553,-14.36216 0.76238,-2.38733 1.04705,-4.38701 1.24285,-8.73086 0.19676,-4.36483 -0.1526,-3.72765 3.64171,-6.64204 1.42186,-1.09212 3.49612,-2.71156 4.60946,-3.59876 3.78913,-3.01948 6.78369,-7.25627 5.12873,-7.25627 -0.25766,0 -1.32805,0.23829 -2.37861,0.52952 -3.22473,0.89392 -3.21657,0.91109 -1.1022,-2.31663 4.20815,-6.42398 7.35459,-9.68465 13.08235,-13.55736 3.64695,-2.46582 8.88345,-6.34772 17.73025,-13.14376 6.22503,-4.78202 9.09204,-6.63621 21.04073,-13.60774 7.19185,-4.19613 14.75548,-8.96163 17.60011,-11.08904 5.42748,-4.05906 23.53985,-19.5219 27.83548,-23.76362 1.40733,-1.38967 1.93913,-2.10099 1.93913,-2.59374 0,-1.13181 -1.54446,-0.92857 -4.52301,0.59517 -3.463,1.77158 -11.7129,7.30061 -16.65005,11.15875 -6.19254,4.83917 -11.77136,8.85016 -19.05643,13.70094 -7.43435,4.9502 -13.51834,8.8141 -13.8784,8.8141 -0.0705,0 -1.6356,0.71485 -3.47802,1.58854 -1.84242,0.8737 -3.40061,1.58854 -3.46266,1.58854 -0.25796,0 -11.86198,5.8658 -14.40319,7.28077 -10.46988,5.82975 -17.14334,10.65326 -23.41979,16.92758 -4.66133,4.65974 -6.75771,7.5036 -11.23469,15.24042 -2.95708,5.11024 -3.53753,5.88814 -4.69477,6.29195 -0.52793,0.18421 -2.75293,0.45655 -4.94445,0.60519 -3.65453,0.24786 -7.33857,0.78224 -11.79216,1.71046 -3.78029,0.78789 -6.98424,1.228 -7.81067,1.07291 -1.305,-0.24491 -2.89263,-1.16907 -7.48185,-4.35516 -2.28813,-1.58855 -4.63662,-3.15859 -5.21888,-3.48899 -4.99403,-2.83382 -12.33391,-5.28957 -20.37907,-6.81835 -1.60121,-0.30427 -3.92364,-0.74583 -5.16093,-0.98123 -1.2373,-0.2354 -3.14288,-0.53215 -4.23462,-0.65942 -1.09173,-0.12729 -3.65235,-0.42914 -5.69025,-0.67079 -2.85808,-0.33891 -6.61001,-0.45588 -16.40913,-0.51155 -15.62957,-0.0888 -17.94972,-0.35018 -31.75958,-3.57811 -2.07492,-0.485 -4.7685,-1.09708 -9.52788,-2.16508 -7.01311,-1.57374 -16.64897,-4.37796 -23.15747,-6.73927 -3.26955,-1.18619 -5.48085,-1.68738 -7.44495,-1.68738 -1.69404,0 -2.61281,0.3205 -2.61281,0.91143 0,1.2568 8.15167,6.82192 14.32371,9.77875 6.75153,3.23446 12.50323,5.08356 25.24344,8.11545 3.92214,0.93338 13.16988,3.2022 26.99565,6.62303 14.51206,3.59064 20.91979,4.88559 32.68591,6.60554 10.12304,1.47977 14.68389,2.69826 19.87758,5.31052 4.54034,2.28364 9.67066,5.84024 11.97147,8.29923 1.2553,1.34159 3.75783,5.16596 7.05644,10.78362 2.92407,4.9798 4.35728,6.68136 6.66882,7.9174 2.69887,1.44316 4.44874,1.85187 7.51319,1.7548 2.31579,-0.0734 2.89616,-0.19082 4.38398,-0.8873 z"
         id="path1-3" /></g><g
       id="g8"
       inkscape:export-filename="g8.png"
       inkscape:export-xdpi="96"
       inkscape:export-ydpi="96"><rect
         style="fill:url(#linearGradient2);fill-opacity:1;stroke-width:3.38968;stroke-linecap:round;paint-order:markers fill stroke"
         id="rect2-9"
         width="423.33334"
         height="423.33334"
         x="846.66669"
         y="2.0617674e-07"
         ry="105.83334" /><path
         style="fill:#ffffff;fill-opacity:1;stroke-width:1.00048"
         d="m 1052.0769,370.32161 c -7.5054,-0.40487 -16.3857,-1.39764 -22.3641,-2.50019 -10.3266,-1.90449 -22.9239,-5.51908 -29.5732,-8.48559 -0.6171,-0.2753 -1.2275,-0.50054 -1.3565,-0.50054 -0.2151,0 -1.3467,-0.47611 -4.5351,-1.90819 -0.6551,-0.29421 -1.727,-0.77182 -2.382,-1.06135 -2.0677,-0.91393 -9.5828,-4.72445 -11.5129,-5.83751 -3.657,-2.10903 -9.8045,-5.92655 -10.8529,-6.73943 -0.1465,-0.11361 -1.0397,-0.73971 -1.985,-1.39134 -14.3882,-9.91923 -28.4639,-23.90091 -38.6544,-38.39635 -5.6422,-8.02572 -8.3832,-12.63176 -12.6828,-21.31292 -6.25957,-12.63861 -10.89406,-25.88834 -13.24269,-37.86023 -0.1714,-0.87369 -0.48635,-2.41943 -0.69988,-3.43496 -1.16316,-5.53182 -2.10447,-14.31558 -2.51169,-23.43786 -0.72071,-16.14468 1.34673,-33.48146 5.90407,-49.50951 0.99331,-3.49346 4.18111,-12.82862 5.10816,-14.95877 0.19012,-0.43684 0.49983,-1.21126 0.68825,-1.72091 1.11081,-3.00461 6.39608,-13.94673 8.31238,-17.2092 4.1543,-7.07255 5.9788,-9.91984 9.484,-14.79994 8.5561,-11.9123 17.2352,-21.092822 29.8272,-31.550363 8.8077,-7.314833 22.8306,-15.867466 34.6641,-21.141922 14.2367,-6.345568 29.2159,-10.501641 44.8671,-12.448656 13.5474,-1.685284 28.438,-1.591303 41.6845,0.263092 14.4898,2.028429 28.8621,6.10507 41.9443,11.897255 14.2175,6.294864 27.4352,14.585386 38.778,24.322546 6.3589,5.458756 10.2414,9.261598 16.6626,16.320418 4.955,5.44704 12.169,15.39247 17.092,23.56336 1.8985,3.15104 7.6072,14.16045 8.649,16.67968 0.2408,0.58246 0.904,2.13128 1.4738,3.44183 0.5697,1.31055 1.4234,3.45508 1.897,4.76563 0.4737,1.31054 0.9637,2.62109 1.0889,2.91232 0.4331,1.00736 2.6046,7.74578 3.1664,9.82585 1.3281,4.9168 1.6376,6.11741 1.8349,7.11859 0.1148,0.58247 0.4131,2.01215 0.663,3.17708 1.0355,4.82732 1.203,5.76233 1.8261,10.19314 1.6172,11.49921 2.0995,21.66291 1.489,31.37819 -0.3027,4.81712 -0.6985,9.263 -1.0483,11.77716 -0.8578,6.16439 -0.8199,5.94034 -2.1484,12.70833 -3.3478,17.05539 -11.1032,36.10314 -21.236,52.15709 -15.0357,23.82185 -37.9151,44.55648 -62.6403,56.76827 -7.3763,3.64317 -8.6384,4.20032 -16.2768,7.18542 -8.8507,3.4589 -21.9108,6.74082 -33.0829,8.31352 -7.7667,1.09333 -21.6395,1.79726 -28.3189,1.43696 z m 22.1389,-88.71301 c 4.1185,-1.92797 9.5708,-8.83598 11.3355,-14.36216 0.7624,-2.38733 1.0471,-4.38701 1.2429,-8.73086 0.1967,-4.36483 -0.1526,-3.72765 3.6417,-6.64204 1.4219,-1.09212 3.4961,-2.71156 4.6095,-3.59876 3.7891,-3.01948 6.7837,-7.25627 5.1287,-7.25627 -0.2577,0 -1.3281,0.23829 -2.3786,0.52952 -3.2248,0.89392 -3.2166,0.91109 -1.1022,-2.31663 4.2081,-6.42398 7.3546,-9.68465 13.0823,-13.55736 3.647,-2.46582 8.8835,-6.34772 17.7303,-13.14376 6.225,-4.78202 9.092,-6.63621 21.0407,-13.60774 7.1919,-4.19613 14.7555,-8.96163 17.6001,-11.08904 5.4275,-4.05906 23.5399,-19.5219 27.8355,-23.76362 1.4073,-1.38967 1.9391,-2.10099 1.9391,-2.59374 0,-1.13181 -1.5444,-0.92857 -4.523,0.59517 -3.463,1.77158 -11.7129,7.30061 -16.65,11.15875 -6.1926,4.83917 -11.7714,8.85016 -19.0565,13.70094 -7.4343,4.9502 -13.5183,8.8141 -13.8784,8.8141 -0.071,0 -1.6356,0.71485 -3.478,1.58854 -1.8424,0.8737 -3.4006,1.58854 -3.4626,1.58854 -0.258,0 -11.862,5.8658 -14.4032,7.28077 -10.4699,5.82975 -17.1434,10.65326 -23.4198,16.92758 -4.6614,4.65974 -6.7577,7.5036 -11.2347,15.24042 -2.9571,5.11024 -3.5375,5.88814 -4.6948,6.29195 -0.5279,0.18421 -2.7529,0.45655 -4.9444,0.60519 -3.6546,0.24786 -7.3386,0.78224 -11.7922,1.71046 -3.7803,0.78789 -6.9842,1.228 -7.8107,1.07291 -1.305,-0.24491 -2.8926,-1.16907 -7.4818,-4.35516 -2.2881,-1.58855 -4.6366,-3.15859 -5.2189,-3.48899 -4.994,-2.83382 -12.3339,-5.28957 -20.3791,-6.81835 -1.6012,-0.30427 -3.9236,-0.74583 -5.1609,-0.98123 -1.2373,-0.2354 -3.1429,-0.53215 -4.2346,-0.65942 -1.0917,-0.12729 -3.6524,-0.42914 -5.6903,-0.67079 -2.858,-0.33891 -6.61,-0.45588 -16.4091,-0.51155 -15.6296,-0.0888 -17.9497,-0.35018 -31.7596,-3.57811 -2.0749,-0.485 -4.7685,-1.09708 -9.5278,-2.16508 -7.0132,-1.57374 -16.649,-4.37796 -23.1575,-6.73927 -3.2696,-1.18619 -5.4809,-1.68738 -7.445,-1.68738 -1.694,0 -2.6128,0.3205 -2.6128,0.91143 0,1.2568 8.1517,6.82192 14.3237,9.77875 6.7516,3.23446 12.5033,5.08356 25.2435,8.11545 3.9221,0.93338 13.1698,3.2022 26.9956,6.62303 14.5121,3.59064 20.9198,4.88559 32.6859,6.60554 10.1231,1.47977 14.6839,2.69826 19.8776,5.31052 4.5403,2.28364 9.6707,5.84024 11.9715,8.29923 1.2553,1.34159 3.7578,5.16596 7.0564,10.78362 2.9241,4.9798 4.3573,6.68136 6.6688,7.9174 2.6989,1.44316 4.4488,1.85187 7.5132,1.7548 2.3158,-0.0734 2.8962,-0.19082 4.384,-0.8873 z"
         id="path1-1" /></g></g></svg>
