<?xml version="1.0" encoding="UTF-8" standalone="no"?>
<!-- Created with Inkscape (http://www.inkscape.org/) -->

<svg
   width="423.33334mm"
   height="423.33334mm"
   viewBox="0 0 423.33334 423.33334"
   version="1.1"
   id="svg1"
   xml:space="preserve"
   inkscape:version="1.3.2 (091e20ef0f, 2023-11-25)"
   sodipodi:docname="viossa.svg"
   xmlns:inkscape="http://www.inkscape.org/namespaces/inkscape"
   xmlns:sodipodi="http://sodipodi.sourceforge.net/DTD/sodipodi-0.dtd"
   xmlns:xlink="http://www.w3.org/1999/xlink"
   xmlns="http://www.w3.org/2000/svg"
   xmlns:svg="http://www.w3.org/2000/svg"><sodipodi:namedview
     id="namedview1"
     pagecolor="#ffffff"
     bordercolor="#000000"
     borderopacity="0.25"
     inkscape:showpageshadow="2"
     inkscape:pageopacity="0.0"
     inkscape:pagecheckerboard="0"
     inkscape:deskcolor="#d1d1d1"
     inkscape:document-units="mm"
     inkscape:zoom="0.1767767"
     inkscape:cx="1349.1597"
     inkscape:cy="2825.5987"
     inkscape:window-width="1920"
     inkscape:window-height="1011"
     inkscape:window-x="0"
     inkscape:window-y="0"
     inkscape:window-maximized="1"
     inkscape:current-layer="layer1"
     showgrid="false" /><defs
     id="defs1"><linearGradient
       id="linearGradient16"
       inkscape:collect="always"><stop
         style="stop-color:#724a09;stop-opacity:1;"
         offset="0"
         id="stop15" /><stop
         style="stop-color:#edbb69;stop-opacity:0.99607843;"
         offset="1"
         id="stop16" /></linearGradient><linearGradient
       inkscape:collect="always"
       xlink:href="#linearGradient16"
       id="linearGradient12"
       gradientUnits="userSpaceOnUse"
       gradientTransform="translate(2e-5,1.4229614e-5)"
       x1="211.66667"
       y1="846.66669"
       x2="211.66667"
       y2="423.33334" /></defs><g
     inkscape:label="Layer 1"
     inkscape:groupmode="layer"
     id="layer1"
     transform="translate(-3.5058594e-6,-423.33334)"><g
       id="g17"><rect
         style="fill:url(#linearGradient12);fill-opacity:1;stroke-width:3.38968;stroke-linecap:round;paint-order:markers fill stroke"
         id="rect2-9-2-3-7-2-8"
         width="423.33334"
         height="423.33334"
         x="3.5058592e-06"
         y="423.33334"
         ry="0" /><path
         style="fill:none;fill-opacity:1;stroke:#ffffff;stroke-width:23.151;stroke-linecap:round;stroke-linejoin:round;stroke-dasharray:none;stroke-opacity:1;paint-order:markers fill stroke"
         d="m 107.48697,565.34843 h 81.72319"
         id="path4-7"
         sodipodi:nodetypes="cc" /><path
         style="fill:none;fill-opacity:1;stroke:#ffffff;stroke-width:23.151;stroke-linecap:round;stroke-linejoin:round;stroke-dasharray:none;stroke-opacity:1;paint-order:markers fill stroke"
         d="m 107.48697,657.95259 h 81.72319"
         id="path6-2"
         sodipodi:nodetypes="cc" /><path
         style="fill:none;fill-opacity:1;stroke:#ffffff;stroke-width:23.151;stroke-linecap:round;stroke-linejoin:round;stroke-dasharray:none;stroke-opacity:1;paint-order:markers fill stroke"
         d="m 107.48697,611.65051 h 69.45314"
         id="path7-0"
         sodipodi:nodetypes="cc" /><path
         style="fill:none;fill-opacity:1;stroke:#ffffff;stroke-width:23.151;stroke-linecap:round;stroke-linejoin:round;stroke-dasharray:none;stroke-opacity:1;paint-order:markers fill stroke"
         d="M 107.48697,704.25467 H 315.84636"
         id="path8-2"
         sodipodi:nodetypes="cc" /><path
         style="fill:#ffffff;fill-opacity:1;stroke-width:0.364758"
         d="m 267.26327,669.49344 c -2.73634,-0.14762 -5.97395,-0.50956 -8.15357,-0.91154 -3.76492,-0.69434 -8.35768,-2.01216 -10.7819,-3.0937 -0.22498,-0.10037 -0.44752,-0.18249 -0.49456,-0.18249 -0.0784,0 -0.49098,-0.17357 -1.65342,-0.69569 -0.23883,-0.10726 -0.62964,-0.28139 -0.86843,-0.38695 -0.75385,-0.3332 -3.49374,-1.72245 -4.19741,-2.12825 -1.33328,-0.76892 -3.57456,-2.16072 -3.95679,-2.4571 -0.0534,-0.0415 -0.37906,-0.26968 -0.72369,-0.50725 -5.24571,-3.61638 -10.37746,-8.71387 -14.09275,-13.99866 -2.05705,-2.92605 -3.05637,-4.60534 -4.62394,-7.77034 -2.28214,-4.60782 -3.97177,-9.43846 -4.82807,-13.8032 -0.0625,-0.31853 -0.17729,-0.88208 -0.25517,-1.25233 -0.42405,-2.01682 -0.76722,-5.21922 -0.91572,-8.54505 -0.26276,-5.88608 0.49103,-12.20678 2.15253,-18.05034 0.36214,-1.27365 1.52437,-4.67709 1.86237,-5.45371 0.0694,-0.15927 0.18221,-0.4416 0.25091,-0.62743 0.40498,-1.09542 2.33191,-5.08473 3.03055,-6.27417 1.5146,-2.57854 2.17978,-3.61662 3.45771,-5.39581 3.11942,-4.34302 6.28367,-7.69009 10.8745,-11.50274 3.21114,-2.66687 8.32365,-5.78501 12.63795,-7.70799 5.19046,-2.31349 10.65162,-3.82872 16.35779,-4.53857 4.93915,-0.61442 10.36802,-0.58017 15.19748,0.0959 5.28273,0.73953 10.52263,2.22581 15.29218,4.33754 5.18346,2.29499 10.00241,5.31759 14.1378,8.86759 2.31836,1.99017 3.73385,3.37662 6.07491,5.95015 1.80652,1.9859 4.43662,5.61184 6.23146,8.5908 0.69216,1.14883 2.77345,5.16267 3.15328,6.08114 0.0878,0.21235 0.32959,0.77703 0.53733,1.25484 0.20769,0.4778 0.51895,1.25966 0.69161,1.73747 0.1727,0.47779 0.35135,0.9556 0.397,1.06178 0.15789,0.36725 0.94958,2.82398 1.1544,3.58233 0.48422,1.79259 0.59704,2.23031 0.66898,2.59532 0.0419,0.21235 0.15062,0.73359 0.24171,1.15831 0.37753,1.75996 0.4386,2.10086 0.66577,3.71625 0.5896,4.19242 0.76545,7.89793 0.54286,11.43996 -0.11035,1.75624 -0.25465,3.37714 -0.38218,4.29376 -0.31274,2.24743 -0.29893,2.16575 -0.78328,4.63324 -1.22054,6.21811 -4.04803,13.16261 -7.74228,19.0156 -5.48177,8.68505 -13.82321,16.24454 -22.83761,20.69676 -2.68927,1.32824 -3.14942,1.53137 -5.93424,2.61968 -3.22682,1.26106 -7.98831,2.45759 -12.06148,3.03098 -2.83161,0.3986 -7.88939,0.65525 -10.32459,0.52389 z m 8.07147,-32.34328 c 1.50153,-0.7029 3.48935,-3.22145 4.13273,-5.2362 0.27796,-0.87039 0.38176,-1.59944 0.45314,-3.18313 0.0717,-1.59134 -0.0557,-1.35904 1.32771,-2.42157 0.5184,-0.39817 1.27462,-0.9886 1.68054,-1.31205 1.38144,-1.10085 2.47323,-2.64552 1.86984,-2.64552 -0.0939,0 -0.4842,0.0869 -0.8672,0.19306 -1.17571,0.3259 -1.17271,0.33216 -0.40184,-0.8446 1.53421,-2.34209 2.68136,-3.53086 4.76959,-4.94279 1.32964,-0.899 3.23877,-2.31428 6.46417,-4.79199 2.26952,-1.74344 3.31479,-2.41945 7.67109,-4.96116 2.62204,-1.52984 5.3796,-3.26727 6.4167,-4.04288 1.97877,-1.47987 8.58224,-7.11735 10.14835,-8.66382 0.51308,-0.50665 0.70696,-0.76597 0.70696,-0.94563 0,-0.41264 -0.56306,-0.33853 -1.649,0.21699 -1.26257,0.64589 -4.27033,2.66167 -6.07031,4.0683 -2.25773,1.76428 -4.29167,3.22661 -6.94768,4.99513 -2.71043,1.80476 -4.92855,3.21347 -5.05984,3.21347 -0.0258,0 -0.59631,0.26063 -1.26802,0.57915 -0.67171,0.31854 -1.23979,0.57916 -1.2624,0.57916 -0.0941,0 -4.32469,2.13858 -5.25117,2.65445 -3.81714,2.12543 -6.25018,3.884 -8.53847,6.17151 -1.69947,1.69886 -2.46374,2.73568 -4.09598,5.5564 -1.07811,1.86311 -1.28971,2.14671 -1.71165,2.29395 -0.19246,0.0671 -1.00366,0.16643 -1.80264,0.22063 -1.3324,0.0904 -2.67553,0.28519 -4.29924,0.6236 -1.37824,0.28726 -2.54632,0.44771 -2.84765,0.39117 -0.47578,-0.0893 -1.05459,-0.42622 -2.72774,-1.58781 -0.8342,-0.57916 -1.69043,-1.15158 -1.90273,-1.27203 -1.82072,-1.03317 -4.49672,-1.92849 -7.42986,-2.48586 -0.58378,-0.11093 -1.43049,-0.27193 -1.88159,-0.35774 -0.45109,-0.0858 -1.14585,-0.19401 -1.54386,-0.24042 -0.39802,-0.0464 -1.3316,-0.15645 -2.07459,-0.24456 -1.04198,-0.12355 -2.40989,-0.1662 -5.98248,-0.1865 -5.69828,-0.0324 -6.54416,-0.12767 -11.57901,-1.30452 -0.75648,-0.17682 -1.73852,-0.39997 -3.47367,-0.78934 -2.55691,-0.57377 -6.06996,-1.59613 -8.44285,-2.45703 -1.19204,-0.43247 -1.99825,-0.61519 -2.71432,-0.61519 -0.6176,0 -0.95259,0.11685 -0.95259,0.3323 0,0.45821 2.97198,2.48715 5.22219,3.56515 2.46152,1.17924 4.55848,1.85339 9.20334,2.95877 1.42995,0.34028 4.8015,1.16747 9.84215,2.41463 5.29088,1.3091 7.62701,1.78121 11.91674,2.40828 3.69071,0.53951 5.3535,0.98374 7.24705,1.93612 1.6553,0.83259 3.52575,2.12926 4.36459,3.02576 0.45766,0.48912 1.37003,1.88343 2.57265,3.93153 1.06608,1.81556 1.5886,2.43591 2.43133,2.88656 0.98397,0.52615 1.62196,0.67516 2.73919,0.63977 0.8443,-0.0267 1.0559,-0.0696 1.59833,-0.3235 z"
         id="path9-3" /></g><g
       id="g2"
       inkscape:export-filename="favicon.png"
       inkscape:export-xdpi="96"
       inkscape:export-ydpi="96"><rect
         style="opacity:1;fill:#00baff;fill-opacity:1;stroke-width:3.38968;stroke-linecap:round;paint-order:markers fill stroke"
         id="rect2"
         width="423.33334"
         height="423.33334"
         x="0"
         y="0" /><path
         style="fill:#ffffff;fill-opacity:1;stroke-width:1.00048"
         d="m 205.41017,370.32161 c -7.50541,-0.40487 -16.38567,-1.39764 -22.36404,-2.50019 -10.32668,-1.90449 -22.92392,-5.51908 -29.57323,-8.48559 -0.61707,-0.2753 -1.22751,-0.50054 -1.35655,-0.50054 -0.21509,0 -1.34663,-0.47611 -4.5351,-1.90819 -0.65504,-0.29421 -1.72692,-0.77182 -2.38197,-1.06135 -2.06764,-0.91393 -9.58283,-4.72445 -11.51284,-5.83751 -3.65701,-2.10903 -9.80458,-5.92655 -10.85291,-6.73943 -0.1465,-0.11361 -1.03974,-0.73971 -1.98498,-1.39134 -14.38826,-9.91923 -28.463941,-23.90091 -38.654476,-38.39635 -5.642223,-8.02572 -8.383141,-12.63176 -12.682728,-21.31292 -6.25962,-12.63861 -10.894108,-25.88834 -13.242737,-37.86023 -0.171402,-0.87369 -0.486347,-2.41943 -0.699882,-3.43496 -1.163161,-5.53182 -2.104465,-14.31558 -2.511688,-23.43786 -0.720707,-16.14468 1.346727,-33.48146 5.904072,-49.50951 0.99331,-3.49346 4.181112,-12.82862 5.108162,-14.95877 0.190118,-0.43684 0.499831,-1.21126 0.688248,-1.72091 1.110805,-3.00461 6.39604,-13.94673 8.312349,-17.2092 4.154284,-7.07255 5.978874,-9.91984 9.484052,-14.79994 8.556113,-11.9123 17.235222,-21.092824 29.827128,-31.550365 8.80777,-7.314833 22.83062,-15.867466 34.66419,-21.141922 14.23666,-6.345568 29.21585,-10.501641 44.8671,-12.448656 13.54731,-1.685284 28.43792,-1.591303 41.68446,0.263092 14.48976,2.028429 28.8621,6.10507 41.94425,11.897255 14.21751,6.294864 27.43529,14.585386 38.77804,24.322546 6.35886,5.458756 10.24144,9.261598 16.66262,16.32042 4.95499,5.44704 12.16903,15.39247 17.09197,23.56336 1.89849,3.15104 7.60724,14.16045 8.64898,16.67968 0.24086,0.58246 0.90407,2.13128 1.4738,3.44183 0.56973,1.31055 1.42342,3.45508 1.89707,4.76563 0.47366,1.31054 0.96363,2.62109 1.08884,2.91232 0.4331,1.00736 2.60462,7.74578 3.16647,9.82585 1.3281,4.9168 1.63756,6.11741 1.83484,7.11859 0.11479,0.58247 0.41314,2.01215 0.66302,3.17708 1.03546,4.82732 1.20297,5.76233 1.8261,10.19314 1.61719,11.49921 2.09949,21.66291 1.48897,31.37819 -0.30271,4.81712 -0.69844,9.263 -1.04829,11.77716 -0.85778,6.16439 -0.81991,5.94034 -2.14839,12.70833 -3.34779,17.05539 -11.10315,36.10314 -21.23597,52.15709 -15.03569,23.82185 -37.91509,44.55648 -62.6403,56.76827 -7.37631,3.64317 -8.63843,4.20032 -16.27678,7.18542 -8.85073,3.4589 -21.91082,6.74082 -33.08291,8.31352 -7.7667,1.09333 -21.63956,1.79726 -28.31896,1.43696 z m 22.13894,-88.71301 c 4.1185,-1.92797 9.57076,-8.83598 11.33553,-14.36216 0.76238,-2.38733 1.04705,-4.38701 1.24285,-8.73086 0.19676,-4.36483 -0.1526,-3.72765 3.64171,-6.64204 1.42186,-1.09212 3.49612,-2.71156 4.60946,-3.59876 3.78913,-3.01948 6.78369,-7.25627 5.12873,-7.25627 -0.25766,0 -1.32805,0.23829 -2.37861,0.52952 -3.22473,0.89392 -3.21657,0.91109 -1.1022,-2.31663 4.20815,-6.42398 7.35459,-9.68465 13.08235,-13.55736 3.64695,-2.46582 8.88345,-6.34772 17.73025,-13.14376 6.22503,-4.78202 9.09204,-6.63621 21.04073,-13.60774 7.19185,-4.19613 14.75548,-8.96163 17.60011,-11.08904 5.42748,-4.05906 23.53985,-19.5219 27.83548,-23.76362 1.40733,-1.38967 1.93913,-2.10099 1.93913,-2.59374 0,-1.13181 -1.54446,-0.92857 -4.52301,0.59517 -3.463,1.77158 -11.7129,7.30061 -16.65005,11.15875 -6.19254,4.83917 -11.77136,8.85016 -19.05643,13.70094 -7.43435,4.9502 -13.51834,8.8141 -13.8784,8.8141 -0.0705,0 -1.6356,0.71485 -3.47802,1.58854 -1.84242,0.8737 -3.40061,1.58854 -3.46266,1.58854 -0.25796,0 -11.86198,5.8658 -14.40319,7.28077 -10.46988,5.82975 -17.14334,10.65326 -23.41979,16.92758 -4.66133,4.65974 -6.75771,7.5036 -11.23469,15.24042 -2.95708,5.11024 -3.53753,5.88814 -4.69477,6.29195 -0.52793,0.18421 -2.75293,0.45655 -4.94445,0.60519 -3.65453,0.24786 -7.33857,0.78224 -11.79216,1.71046 -3.78029,0.78789 -6.98424,1.228 -7.81067,1.07291 -1.305,-0.24491 -2.89263,-1.16907 -7.48185,-4.35516 -2.28813,-1.58855 -4.63662,-3.15859 -5.21888,-3.48899 -4.99403,-2.83382 -12.33391,-5.28957 -20.37907,-6.81835 -1.60121,-0.30427 -3.92364,-0.74583 -5.16093,-0.98123 -1.2373,-0.2354 -3.14288,-0.53215 -4.23462,-0.65942 -1.09173,-0.12729 -3.65235,-0.42914 -5.69025,-0.67079 -2.85808,-0.33891 -6.61001,-0.45588 -16.40913,-0.51155 -15.62957,-0.0888 -17.94972,-0.35018 -31.75958,-3.57811 -2.07492,-0.485 -4.7685,-1.09708 -9.52788,-2.16508 -7.013108,-1.57374 -16.648967,-4.37796 -23.157471,-6.73927 -3.269547,-1.18619 -5.480844,-1.68738 -7.444947,-1.68738 -1.694041,0 -2.612809,0.3205 -2.612809,0.91143 0,1.2568 8.151671,6.82192 14.323704,9.77875 6.751537,3.23446 12.503233,5.08356 25.243443,8.11545 3.92214,0.93338 13.16988,3.2022 26.99565,6.62303 14.51206,3.59064 20.91979,4.88559 32.68591,6.60554 10.12304,1.47977 14.68389,2.69826 19.87758,5.31052 4.54034,2.28364 9.67066,5.84024 11.97147,8.29923 1.2553,1.34159 3.75783,5.16596 7.05644,10.78362 2.92407,4.9798 4.35728,6.68136 6.66882,7.9174 2.69887,1.44316 4.44874,1.85187 7.51319,1.7548 2.31579,-0.0734 2.89616,-0.19082 4.38398,-0.8873 z"
         id="path1" /></g></g></svg>
